<svg width="110" height="110" viewBox="0 0 110 110" fill="none" xmlns="http://www.w3.org/2000/svg">
<circle cx="55" cy="55" r="55" fill="#693AF7"/>
<path d="M49.7043 88.7681C47.3363 88.7681 45.1603 88.5441 43.1763 88.0961C41.1923 87.7121 39.5283 87.2321 38.1843 86.6561C35.4963 85.5041 34.1523 83.6801 34.1523 81.1841C34.1523 77.3441 36.4563 75.4241 41.0643 75.4241C42.4723 75.4241 43.9443 75.5521 45.4803 75.8081C47.0803 76.0001 48.4883 76.0961 49.7043 76.0961C51.7523 76.0961 53.1603 75.4881 53.9283 74.2721C54.7603 73.0561 55.1763 70.8801 55.1763 67.7441V27.2321C55.1763 22.2401 57.4803 19.7441 62.0883 19.7441C66.6963 19.7441 69.0003 22.2401 69.0003 27.2321V69.8561C69.0003 75.9361 67.3363 80.6081 64.0083 83.8721C60.7443 87.1361 55.9763 88.7681 49.7043 88.7681Z" fill="white"/>
</svg>
